<svg width="24" height="24" viewBox="0 0 24 24" fill="none" xmlns="http://www.w3.org/2000/svg">
<path d="M1.29297 12.7066L5.29297 16.7066C5.38522 16.8021 5.49556 16.8783 5.61757 16.9307C5.73957 16.9831 5.87079 17.0107 6.00357 17.0118C6.13635 17.013 6.26803 16.9877 6.39092 16.9374C6.51382 16.8871 6.62547 16.8129 6.71937 16.719C6.81326 16.6251 6.88751 16.5134 6.93779 16.3905C6.98807 16.2676 7.01337 16.136 7.01222 16.0032C7.01107 15.8704 6.98348 15.7392 6.93107 15.6172C6.87866 15.4952 6.80248 15.3848 6.70697 15.2926L3.41397 11.9996L6.70697 8.70659C6.80248 8.61435 6.87866 8.504 6.93107 8.382C6.98348 8.25999 7.01107 8.12877 7.01222 7.99599C7.01337 7.86321 6.98807 7.73154 6.93779 7.60864C6.88751 7.48574 6.81326 7.37409 6.71937 7.2802C6.62547 7.18631 6.51382 7.11205 6.39092 7.06177C6.26803 7.01149 6.13635 6.98619 6.00357 6.98734C5.87079 6.9885 5.73957 7.01608 5.61757 7.06849C5.49556 7.1209 5.38522 7.19708 5.29297 7.29259L1.29297 11.2926C1.1055 11.4801 1.00018 11.7344 1.00018 11.9996C1.00018 12.2648 1.1055 12.5191 1.29297 12.7066Z" fill="#575757"/>
<path d="M18.707 7.29259C18.6148 7.19708 18.5044 7.1209 18.3824 7.06849C18.2604 7.01608 18.1292 6.9885 17.9964 6.98734C17.8636 6.98619 17.732 7.01149 17.6091 7.06177C17.4862 7.11205 17.3745 7.18631 17.2806 7.2802C17.1867 7.37409 17.1125 7.48574 17.0622 7.60864C17.0119 7.73154 16.9866 7.86321 16.9878 7.99599C16.9889 8.12877 17.0165 8.25999 17.0689 8.382C17.1213 8.504 17.1975 8.61435 17.293 8.70659L20.586 11.9996L17.293 15.2926C17.1975 15.3848 17.1213 15.4952 17.0689 15.6172C17.0165 15.7392 16.9889 15.8704 16.9878 16.0032C16.9866 16.136 17.0119 16.2676 17.0622 16.3905C17.1125 16.5134 17.1867 16.6251 17.2806 16.719C17.3745 16.8129 17.4862 16.8871 17.6091 16.9374C17.732 16.9877 17.8636 17.013 17.9964 17.0118C18.1292 17.0107 18.2604 16.9831 18.3824 16.9307C18.5044 16.8783 18.6148 16.8021 18.707 16.7066L22.707 12.7066C22.8945 12.5191 22.9998 12.2648 22.9998 11.9996C22.9998 11.7344 22.8945 11.4801 22.707 11.2926L18.707 7.29259Z" fill="#575757"/>
<path d="M13.039 4.72589L9.03902 18.7259C8.96621 18.9808 8.99756 19.2541 9.12619 19.4859C9.25483 19.7176 9.47022 19.8889 9.72502 19.9619C9.81461 19.9866 9.90708 19.9994 10 19.9999C10.2173 19.9997 10.4287 19.9288 10.6021 19.7978C10.7755 19.6668 10.9015 19.4829 10.961 19.2739L14.961 5.27389C15.0027 5.14604 15.0182 5.01109 15.0065 4.87713C14.9949 4.74316 14.9563 4.61292 14.8931 4.4942C14.83 4.37548 14.7435 4.27072 14.6389 4.18618C14.5344 4.10164 14.4138 4.03906 14.2845 4.00219C14.1552 3.96532 14.0197 3.95491 13.8863 3.97158C13.7529 3.98826 13.6242 4.03168 13.5079 4.09924C13.3916 4.1668 13.2902 4.25712 13.2096 4.36479C13.129 4.47246 13.071 4.59528 13.039 4.72589Z" fill="#575757"/>
</svg>
