<svg width="32" height="32" viewBox="0 0 32 32" fill="none" xmlns="http://www.w3.org/2000/svg">
<g clip-path="url(#clip0_1973_1097)">
<path d="M16 25.18C14.8915 25.18 13.7829 24.7581 12.939 23.9142C11.2513 22.2264 11.2513 19.48 12.939 17.7922C14.6268 16.1044 17.3732 16.1044 19.0609 17.7922C20.7487 19.48 20.7487 22.2264 19.0609 23.9142C18.2171 24.758 17.1085 25.18 16 25.18Z" fill="#FF5F5F"/>
<path d="M10.4624 16.2873C10.2138 16.2873 9.96525 16.1924 9.77562 16.0027C9.39625 15.6234 9.39625 15.0083 9.77562 14.629C11.4382 12.9664 13.6487 12.0508 16 12.0508C18.3512 12.0508 20.5617 12.9665 22.2244 14.629C22.6037 15.0083 22.6037 15.6234 22.2244 16.0027C21.8451 16.382 21.23 16.3822 20.8507 16.0027C19.555 14.707 17.8324 13.9935 16.0001 13.9935C14.1677 13.9935 12.4451 14.7071 11.1494 16.0027C10.9597 16.1925 10.7111 16.2873 10.4624 16.2873Z" fill="#FF5F5F"/>
<path d="M24.8321 12.9927C24.5834 12.9927 24.3349 12.8979 24.1453 12.7082C21.9696 10.5325 19.0769 9.33429 16.0001 9.33429C12.9232 9.33429 10.0306 10.5325 7.85487 12.7082C7.47556 13.0875 6.8605 13.0875 6.48119 12.7082C6.10181 12.3289 6.10181 11.7138 6.48119 11.3345C9.02375 8.79185 12.4043 7.3916 16.0001 7.3916C19.5958 7.3916 22.9764 8.79185 25.5189 11.3345C25.8983 11.7138 25.8983 12.3289 25.5189 12.7082C25.3293 12.8979 25.0807 12.9927 24.8321 12.9927Z" fill="#FF5F5F"/>
<path d="M27.3137 4.68631C24.2917 1.66425 20.2738 0 16 0C11.7262 0 7.70825 1.66425 4.68631 4.68631C1.66425 7.70825 0 11.7262 0 16C0 20.2738 1.66425 24.2917 4.68631 27.3137C7.70831 30.3358 11.7262 32 16 32C20.2738 32 24.2917 30.3358 27.3137 27.3137C30.3358 24.2917 32 20.2738 32 16C32 11.7262 30.3358 7.70825 27.3137 4.68631ZM16 1.94275C19.5268 1.94275 22.7541 3.24856 25.2246 5.40169L5.40169 25.2247C3.24856 22.7541 1.94275 19.5268 1.94275 16C1.94275 8.24881 8.24881 1.94275 16 1.94275ZM16 30.0572C12.4732 30.0572 9.24587 28.7514 6.77537 26.5983L26.5984 6.77531C28.7515 9.24587 30.0573 12.4732 30.0573 15.9999C30.0572 23.7512 23.7512 30.0572 16 30.0572Z" fill="#FF5F5F"/>
<path d="M15.9998 16.5264V25.1801C15.9999 25.1801 15.9999 25.1801 16 25.1801C17.1085 25.1801 18.2171 24.7581 19.0609 23.9142C20.7487 22.2264 20.7487 19.4801 19.0609 17.7922C18.2171 16.9483 17.1084 16.5263 15.9998 16.5264Z" fill="#FF4444"/>
<path d="M16 7.3916C15.9999 7.3916 15.9999 7.3916 15.9998 7.3916V9.33435C15.9999 9.33435 15.9999 9.33435 16 9.33435C19.0769 9.33435 21.9695 10.5325 24.1452 12.7082C24.3349 12.8979 24.5834 12.9928 24.832 12.9928C25.0806 12.9928 25.3292 12.8979 25.5188 12.7082C25.8982 12.3289 25.8982 11.7139 25.5188 11.3345C22.9764 8.79185 19.5959 7.3916 16 7.3916Z" fill="#FF4444"/>
<path d="M16 12.0508C15.9999 12.0508 15.9999 12.0508 15.9998 12.0508V13.9935C15.9999 13.9935 15.9999 13.9935 16 13.9935C17.8324 13.9935 19.555 14.7072 20.8506 16.0028C21.2299 16.3822 21.845 16.3821 22.2243 16.0028C22.6037 15.6235 22.6037 15.0084 22.2243 14.6291C20.5618 12.9663 18.3513 12.0508 16 12.0508Z" fill="#FF4444"/>
<path d="M25.2247 5.40169L16 14.6263V17.3737L26.5983 6.77537C28.7514 9.24594 30.0572 12.4732 30.0572 16C30.0572 23.7512 23.7512 30.0572 16 30.0572V32C20.2737 32 24.2918 30.3358 27.3137 27.3137C30.3358 24.2917 32 20.2738 32 16C32 11.7262 30.3358 7.70825 27.3137 4.68631C24.2918 1.66425 20.2737 0 16 0V1.94275C19.5268 1.94275 22.7541 3.24856 25.2247 5.40169Z" fill="#FF4444"/>
</g>
<defs>
<clipPath id="clip0_1973_1097">
<rect width="32" height="32" fill="white"/>
</clipPath>
</defs>
</svg>
