<svg width="32" height="32" viewBox="0 0 32 32" fill="none" xmlns="http://www.w3.org/2000/svg">
<path d="M15.9844 0.984375C15.499 0.984375 15.1055 1.37787 15.1055 1.86328V4.6875C15.1055 5.17291 15.499 5.56641 15.9844 5.56641C16.4698 5.56641 16.8633 5.17291 16.8633 4.6875V1.86328C16.8633 1.37787 16.4698 0.984375 15.9844 0.984375Z" fill="#6BF1B1"/>
<path d="M6.62073 5.37781C6.27777 5.03467 5.72113 5.03467 5.37799 5.37781C5.03467 5.72113 5.03467 6.27759 5.37799 6.62073L7.37494 8.61786C7.71826 8.96118 8.27472 8.96118 8.61786 8.61786C8.96118 8.27472 8.96118 7.71808 8.61786 7.37494L6.62073 5.37781Z" fill="#6BF1B1"/>
<path d="M7.37457 23.3511L5.37744 25.3482C5.0343 25.6915 5.0343 26.2478 5.37744 26.5913C5.72095 26.9344 6.27722 26.9344 6.62054 26.5913L8.61768 24.5942C8.96082 24.2509 8.96082 23.6946 8.61768 23.3511C8.27417 23.0079 7.7179 23.0081 7.37457 23.3511Z" fill="#6BF1B1"/>
<path d="M15.9844 26.4023C15.499 26.4023 15.1055 26.7958 15.1055 27.2812V30.1055C15.1055 30.5909 15.499 30.9844 15.9844 30.9844C16.4698 30.9844 16.8633 30.5909 16.8633 30.1055V27.2812C16.8633 26.7958 16.4698 26.4023 15.9844 26.4023Z" fill="#6BF1B1"/>
<path d="M5.56641 15.9844C5.56641 15.499 5.17291 15.1055 4.6875 15.1055H1.86328C1.37787 15.1055 0.984375 15.499 0.984375 15.9844C0.984375 16.4698 1.37787 16.8633 1.86328 16.8633H4.6875C5.17291 16.8633 5.56641 16.4698 5.56641 15.9844Z" fill="#6BF1B1"/>
<path d="M15.9844 23.4532C11.8661 23.4532 8.5155 20.1026 8.5155 15.9844C8.5155 11.8661 11.8661 8.5155 15.9844 8.5155C20.1026 8.5155 23.4532 11.8661 23.4532 15.9844C23.4532 20.1026 20.1026 23.4532 15.9844 23.4532Z" fill="#6BF1B1"/>
<path d="M23.4532 15.9844C23.4532 11.8661 20.1026 8.5155 15.9844 8.5155V23.4532C20.1026 23.4532 23.4532 20.1026 23.4532 15.9844Z" fill="#34AC73"/>
<path d="M24.5942 8.61768L26.5913 6.62036C26.9344 6.27722 26.9344 5.72095 26.5913 5.37744C26.2478 5.0343 25.6915 5.0343 25.3484 5.37744L23.3511 7.37457C23.0081 7.7179 23.0081 8.27417 23.3511 8.61768C23.6946 8.96063 24.2509 8.96063 24.5942 8.61768Z" fill="#34AC73"/>
<path d="M24.5938 23.3509C24.2507 23.0076 23.694 23.0076 23.3509 23.3509C23.0076 23.694 23.0076 24.2507 23.3509 24.5938L25.348 26.5909C25.6912 26.9341 26.2476 26.9341 26.5909 26.5909C26.9341 26.2476 26.9341 25.6912 26.5909 25.348L24.5938 23.3509Z" fill="#34AC73"/>
<path d="M30.1055 15.1055H27.2812C26.7958 15.1055 26.4023 15.499 26.4023 15.9844C26.4023 16.4698 26.7958 16.8633 27.2812 16.8633H30.1055C30.5909 16.8633 30.9844 16.4698 30.9844 15.9844C30.9844 15.499 30.5909 15.1055 30.1055 15.1055Z" fill="#34AC73"/>
<path d="M15.9844 0.984375V5.56641C16.4698 5.56641 16.8633 5.17291 16.8633 4.6875V1.86328C16.8633 1.37787 16.4698 0.984375 15.9844 0.984375Z" fill="#34AC73"/>
<path d="M15.9844 26.4023V30.9844C16.4698 30.9844 16.8633 30.5909 16.8633 30.1055V27.2812C16.8633 26.7958 16.4698 26.4023 15.9844 26.4023Z" fill="#34AC73"/>
</svg>
