<svg width="32" height="32" viewBox="0 0 32 32" fill="none" xmlns="http://www.w3.org/2000/svg">
<path d="M23.5002 9.4375H19.5314L24.3041 1.42C24.478 1.12975 24.4826 0.769063 24.3159 0.475188C24.1493 0.181313 23.8381 0 23.5002 0H16.0002H12.2502C11.8199 0 11.4455 0.293 11.3411 0.710438L7.59112 15.7729C7.52062 16.0531 7.58381 16.3498 7.76143 16.5768C7.93906 16.8047 8.21187 16.9374 8.50024 16.9374H12.7721L7.62231 30.7329C7.45749 31.1723 7.64337 31.6658 8.05624 31.8883C8.47099 32.1105 8.98412 31.9916 9.25831 31.6136L16.0002 22.2809L24.2583 10.9261C24.4661 10.6414 24.4954 10.2642 24.3361 9.94925C24.1759 9.63525 23.8527 9.4375 23.5002 9.4375Z" fill="#FFBF5F"/>
<path d="M24.3361 9.94925C24.1759 9.63525 23.8527 9.4375 23.5002 9.4375H19.5314L24.3041 1.42C24.478 1.12975 24.4826 0.769063 24.3159 0.475188C24.1493 0.181313 23.8381 0 23.5002 0H16.0002V22.281L24.2583 10.9261C24.4661 10.6414 24.4954 10.2642 24.3361 9.94925Z" fill="#FFAF37"/>
</svg>
